<svg width="24" height="24" viewBox="0 0 24 24" fill="none" xmlns="http://www.w3.org/2000/svg">
<path d="M9.66667 19.0588C8.38007 19.0588 7.33333 20.1671 7.33333 21.5294C7.33333 22.8917 8.38007 24 9.66667 24C10.9533 24 12 22.8917 12 21.5294C11.9999 20.1671 10.9532 19.0588 9.66667 19.0588ZM9.66667 22.6204C9.09843 22.6204 8.63615 22.1309 8.63615 21.5293C8.63615 20.9276 9.09848 20.4382 9.66667 20.4382C10.2349 20.4382 10.6972 20.9277 10.6972 21.5293C10.6972 22.131 10.2349 22.6204 9.66667 22.6204Z" fill="white"/>
<path d="M17.6667 19.0588C16.3801 19.0588 15.3333 20.1671 15.3333 21.5294C15.3333 22.8917 16.3801 24 17.6667 24C18.9533 24 20 22.8917 20 21.5294C19.9999 20.1671 18.9532 19.0588 17.6667 19.0588ZM17.6667 22.6204C17.0984 22.6204 16.6362 22.1309 16.6362 21.5293C16.6362 20.9276 17.0985 20.4382 17.6667 20.4382C18.2349 20.4382 18.6972 20.9277 18.6972 21.5293C18.6972 22.131 18.2349 22.6204 17.6667 22.6204Z" fill="white"/>
<path d="M23.7348 4.57732C23.5101 4.28014 23.1771 4.10974 22.8212 4.10974H4.46618L4.09549 2.17088C4.0181 1.76643 3.76207 1.42683 3.41046 1.26234L0.824037 0.0527289C0.525443 -0.0870199 0.178427 0.0606076 0.0489118 0.382227C-0.0807446 0.703947 0.0562711 1.07789 0.354724 1.21744L2.9412 2.42709L5.79242 17.3394C5.90473 17.9267 6.39017 18.3529 6.94671 18.3529H21.0639C21.3893 18.3529 21.6531 18.0687 21.6531 17.718C21.6531 17.3674 21.3893 17.0831 21.0639 17.0831H6.94676L6.59993 15.2692H21.173C21.7295 15.2692 22.215 14.8429 22.3273 14.2556L23.9755 5.63561C24.0473 5.26025 23.9595 4.87444 23.7348 4.57732ZM21.173 13.9995H6.35717L4.70899 5.37949L22.8212 5.37955L21.173 13.9995Z" fill="white"/>
</svg>
