<svg width="30" height="30" viewBox="0 0 30 30" fill="none" xmlns="http://www.w3.org/2000/svg">
<path d="M12.0833 23.8235C10.4751 23.8235 9.16667 25.2089 9.16667 26.9118C9.16667 28.6146 10.4751 30 12.0833 30C13.6916 30 15 28.6146 15 26.9118C14.9999 25.2089 13.6915 23.8235 12.0833 23.8235ZM12.0833 28.2755C11.373 28.2755 10.7952 27.6636 10.7952 26.9116C10.7952 26.1595 11.3731 25.5477 12.0833 25.5477C12.7936 25.5477 13.3715 26.1596 13.3715 26.9116C13.3715 27.6638 12.7936 28.2755 12.0833 28.2755Z" fill="#AC2430"/>
<path d="M22.0833 23.8235C20.4751 23.8235 19.1667 25.2089 19.1667 26.9118C19.1667 28.6146 20.4751 30 22.0833 30C23.6916 30 25 28.6146 25 26.9118C24.9999 25.2089 23.6915 23.8235 22.0833 23.8235ZM22.0833 28.2755C21.373 28.2755 20.7952 27.6636 20.7952 26.9116C20.7952 26.1595 21.3731 25.5477 22.0833 25.5477C22.7936 25.5477 23.3715 26.1596 23.3715 26.9116C23.3715 27.6638 22.7936 28.2755 22.0833 28.2755Z" fill="#AC2430"/>
<path d="M29.6685 5.72164C29.3876 5.35018 28.9713 5.13717 28.5265 5.13717H5.58273L5.11937 2.7136C5.02263 2.20804 4.70259 1.78354 4.26308 1.57792L1.03005 0.0659111C0.656804 -0.108775 0.223034 0.0757595 0.0611397 0.477783C-0.100931 0.879934 0.0703389 1.34736 0.443406 1.5218L3.67649 3.03387L7.24052 21.6743C7.38091 22.4083 7.98771 22.9412 8.68339 22.9412H26.3299C26.7367 22.9412 27.0664 22.5859 27.0664 22.1476C27.0664 21.7092 26.7367 21.3539 26.3299 21.3539H8.68345L8.24992 19.0865H26.4663C27.1619 19.0865 27.7687 18.5536 27.9091 17.8195L29.9694 7.04451C30.0591 6.57531 29.9494 6.09305 29.6685 5.72164ZM26.4663 17.4993H7.94646L5.88624 6.72437L28.5265 6.72443L26.4663 17.4993Z" fill="#AC2430"/>
</svg>
